<mxfile host="app.diagrams.net" modified="2022-02-06T16:13:55.298Z" agent="5.0 (Macintosh; Intel Mac OS X 10_15_7) AppleWebKit/605.1.15 (KHTML, like Gecko) Version/15.3 Safari/605.1.15" etag="evGYcALcgcLiLLDI02s3" version="16.5.3" type="github">
  <diagram id="p_Ly1kN67ypsMMoFEC-E" name="Page-1">
    <mxGraphModel dx="894" dy="536" grid="1" gridSize="10" guides="1" tooltips="1" connect="1" arrows="1" fold="1" page="1" pageScale="1" pageWidth="850" pageHeight="1100" math="0" shadow="0">
      <root>
        <mxCell id="0" />
        <mxCell id="1" parent="0" />
        <mxCell id="KnfBUYVW5-qY2ED9hdQK-15" style="edgeStyle=orthogonalEdgeStyle;rounded=0;orthogonalLoop=1;jettySize=auto;html=1;fontSize=14;fontColor=#FFFFFF;entryX=0.5;entryY=0;entryDx=0;entryDy=0;" edge="1" parent="1" source="KnfBUYVW5-qY2ED9hdQK-1" target="KnfBUYVW5-qY2ED9hdQK-2">
          <mxGeometry relative="1" as="geometry">
            <mxPoint x="220" y="65" as="targetPoint" />
          </mxGeometry>
        </mxCell>
        <mxCell id="KnfBUYVW5-qY2ED9hdQK-16" style="edgeStyle=orthogonalEdgeStyle;rounded=0;orthogonalLoop=1;jettySize=auto;html=1;fontSize=14;fontColor=#FFFFFF;entryX=0.5;entryY=0;entryDx=0;entryDy=0;" edge="1" parent="1" source="KnfBUYVW5-qY2ED9hdQK-1" target="KnfBUYVW5-qY2ED9hdQK-3">
          <mxGeometry relative="1" as="geometry">
            <mxPoint x="620" y="65" as="targetPoint" />
          </mxGeometry>
        </mxCell>
        <mxCell id="KnfBUYVW5-qY2ED9hdQK-1" value="&lt;b&gt;&lt;font style=&quot;font-size: 14px&quot;&gt;Aplikasi Utama&lt;/font&gt;&lt;/b&gt;" style="rounded=0;whiteSpace=wrap;html=1;fillColor=#007FFF;fontColor=#FFFFFF;" vertex="1" parent="1">
          <mxGeometry x="340" y="40" width="160" height="50" as="geometry" />
        </mxCell>
        <mxCell id="KnfBUYVW5-qY2ED9hdQK-6" value="" style="edgeStyle=orthogonalEdgeStyle;rounded=0;orthogonalLoop=1;jettySize=auto;html=1;fontSize=14;fontColor=#FFFFFF;" edge="1" parent="1" source="KnfBUYVW5-qY2ED9hdQK-2" target="KnfBUYVW5-qY2ED9hdQK-3">
          <mxGeometry relative="1" as="geometry" />
        </mxCell>
        <mxCell id="KnfBUYVW5-qY2ED9hdQK-2" value="&lt;b&gt;&lt;font style=&quot;font-size: 14px&quot;&gt;Modul Common&lt;/font&gt;&lt;/b&gt;&lt;span style=&quot;color: rgba(0 , 0 , 0 , 0) ; font-family: monospace ; font-size: 0px&quot;&gt;%3CmxGraphModel%3E%3Croot%3E%3CmxCell%20id%3D%220%22%2F%3E%3CmxCell%20id%3D%221%22%20parent%3D%220%22%2F%3E%3CmxCell%20id%3D%222%22%20value%3D%22%26lt%3Bb%26gt%3B%26lt%3Bfont%20style%3D%26quot%3Bfont-size%3A%2014px%26quot%3B%26gt%3BAplikasi%20Utama%26lt%3B%2Ffont%26gt%3B%26lt%3B%2Fb%26gt%3B%22%20style%3D%22rounded%3D0%3BwhiteSpace%3Dwrap%3Bhtml%3D1%3BfillColor%3D%23007FFF%3BfontColor%3D%23FFFFFF%3B%22%20vertex%3D%221%22%20parent%3D%221%22%3E%3CmxGeometry%20x%3D%22330%22%20y%3D%2240%22%20width%3D%22170%22%20height%3D%2260%22%20as%3D%22geometry%22%2F%3E%3C%2FmxCell%3E%3C%2Froot%3E%3C%2FmxGraphModel%3E&lt;/span&gt;" style="rounded=0;whiteSpace=wrap;html=1;fillColor=#97D077;fontColor=#FFFFFF;" vertex="1" parent="1">
          <mxGeometry x="140" y="160" width="170" height="60" as="geometry" />
        </mxCell>
        <mxCell id="KnfBUYVW5-qY2ED9hdQK-3" value="&lt;span style=&quot;font-size: 14px&quot;&gt;&lt;b&gt;Modul Core&lt;/b&gt;&lt;/span&gt;" style="rounded=0;whiteSpace=wrap;html=1;fillColor=#B5739D;fontColor=#FFFFFF;" vertex="1" parent="1">
          <mxGeometry x="530" y="160" width="170" height="60" as="geometry" />
        </mxCell>
        <mxCell id="KnfBUYVW5-qY2ED9hdQK-17" value="1. Extension&lt;br&gt;2. Resources&lt;br&gt;- Assets&lt;br&gt;- String" style="rounded=0;whiteSpace=wrap;html=1;fontSize=14;fontColor=#FFFFFF;fillColor=#999999;" vertex="1" parent="1">
          <mxGeometry x="160" y="210" width="130" height="80" as="geometry" />
        </mxCell>
        <mxCell id="KnfBUYVW5-qY2ED9hdQK-18" value="1. Network Services&lt;br&gt;2. Utils" style="rounded=0;whiteSpace=wrap;html=1;fontSize=14;fontColor=#FFFFFF;fillColor=#999999;" vertex="1" parent="1">
          <mxGeometry x="552" y="211" width="135" height="80" as="geometry" />
        </mxCell>
        <mxCell id="KnfBUYVW5-qY2ED9hdQK-20" value="" style="rounded=0;whiteSpace=wrap;html=1;fontSize=14;fontColor=#000000;fillColor=none;" vertex="1" parent="1">
          <mxGeometry x="100" y="20" width="630" height="350" as="geometry" />
        </mxCell>
        <mxCell id="KnfBUYVW5-qY2ED9hdQK-19" value="&lt;b&gt;&lt;i&gt;Relation of modularization with main app&lt;br&gt;Wonderfull Indonesia&lt;/i&gt;&lt;/b&gt;" style="text;html=1;resizable=0;autosize=1;align=center;verticalAlign=middle;points=[];fillColor=none;strokeColor=none;rounded=0;fontSize=14;fontColor=#000000;" vertex="1" parent="1">
          <mxGeometry x="280" y="320" width="290" height="40" as="geometry" />
        </mxCell>
      </root>
    </mxGraphModel>
  </diagram>
</mxfile>
